<svg xmlns="http://www.w3.org/2000/svg" viewBox="0 0 800 800"><defs><style>.a{fill:#e71d73;}.b{fill:none;stroke:#c71b6d;stroke-linecap:round;stroke-linejoin:round;stroke-width:7px;}.c{fill:#59b031;}</style></defs><title>Frambuesa</title><path class="a" d="M439.76,681.25c37.34-12.14,67.05-36.44,83.7-73.61,4.54-10.14.61-17.74.61-21.42,18,.14,33.54-14.76,39.25-31.85s4.29-34.29.4-51.89a52.67,52.67,0,0,0,23.4-42.32c.32-16.77-5.55-32.65-19.23-42.36,19.87-9.18,28.38-34.4,24.22-55.88-2.54-13.15-9.44-25.95-20.77-33.09s-27.39-7.35-37.44,1.51c15.95-15.64,17.59-43.61,3.59-61s-41.67-21.79-60.37-9.57c-5.06-13.79-15.65-26.49-30-29.87s-31.55,5.73-33.39,20.31c-4.72-12.79-19.6-19.45-33.22-18.92S349.27,240,337,246c-16.69-11.56-43.89,1.39-45.42,21.64-16.2-3.71-32.81,7.65-40.66,22.3s-9,31.84-9.9,48.44A52.73,52.73,0,0,0,227.91,428a42.56,42.56,0,0,0,8.28,77.2c-12.82,23.2-1.61,56.3,22.67,66.93-6.61,33.37,19.66,69.52,53.45,73.52,13.56,19.94,34.25,31.64,57.3,37.1C386.19,686.7,417.23,688.57,439.76,681.25Z"/><path class="b" d="M239.22,375.2c1-7.06,6.43-13,13-15.78s14-2.83,21-1.51c8.72,1.63,17.72,5.91,21.5,13.94.55,1.17.54,3.14-.76,3.17"/><path class="b" d="M265.86,317.68c4.18-12,17.2-20.26,29.84-18.91s23.63,12.15,25.2,24.76"/><path class="b" d="M390.29,329.17c7.63,7,16.4,13.79,26.72,14.9s22.09-5.78,22.65-16.14"/><path class="b" d="M470.31,307a29.52,29.52,0,0,1,54.51,2"/><path class="b" d="M320.85,383.12c7.85,13.49,23,22.8,38.62,22.28s30.65-11.62,34.48-26.75"/><path class="b" d="M421.55,401.4c9.31,7.09,20.33,12.67,32,12.87a38.1,38.1,0,0,0,37.48-47.81"/><path class="b" d="M490.23,454.31a32.34,32.34,0,0,0,56.43-4.54"/><path class="b" d="M336.69,448.71c-4.28,12.25,3,26.47,14.21,32.93s25.31,6.29,37.78,2.73c6.38-1.82,12.9-4.78,16.42-10.41"/><path class="b" d="M239.5,436.44A32.09,32.09,0,0,0,291,463.34"/><path class="b" d="M258,535c5.49,7.19,12.22,13.64,20.39,17.52s17.93,5,26.33,1.59c8.88-3.56,15.41-11.77,18.29-20.89s2.42-19,.19-28.34"/><path class="b" d="M420.78,520.72c-1,5.84,1.67,11.91,6,16s10.06,6.32,15.88,7.42c17.33,3.28,37-4.44,45-20.17.69-1.36.25-3.93-1.13-3.27"/><path class="b" d="M495.24,450.83c1.44,11.75,12.12,21.67,23.94,22.24s23.41-8.25,26-19.8"/><path class="b" d="M495.55,543.43a19.59,19.59,0,0,0,11.25,16.33,30.05,30.05,0,0,0,10,2.23c6.39.51,13,.07,18.81-2.72s10.53-8.26,11.14-14.64"/><path class="b" d="M334.27,574.78c2.23,10.74,20.48,22.72,33.48,22.72,13.8,0,40.06-11.95,40.06-19.82"/><path class="b" d="M457.17,623.56c3,5.07,12.58,12.88,27.33,12.72,9.11-.1,23.2-5.78,24.94-14.73"/><path class="b" d="M352.89,639.64c1.36,6.45,6.42,14.8,13,18.91,6.26,3.93,14.74,2.46,20.9-1.61s10.52-10.3,14.72-16.38"/><path class="b" d="M294.48,609.54a22.79,22.79,0,0,0,39.69,12.67"/><path class="c" d="M483.31,110.19q-24.8,18.84-48,39.62c-10.74,9.6-21.37,19.69-28.58,32.16-15.8,27.35-10.37,69.92,3.71,98.19,30.77-24.49,59.18-60.25,68.42-98.47,2.85-11.78,3.27-24,3.67-36.11C482.91,132.75,482.88,123,483.31,110.19Z"/><path class="c" d="M410.39,280.16c4.13-22.14-5.94-45.15-21.59-61.34s-36.29-26.58-57.06-35.3A516.64,516.64,0,0,0,265.2,160.8c5,33.92,23.71,62.34,50.58,83.62S376.24,283.12,410.39,280.16Z"/></svg>