<svg xmlns="http://www.w3.org/2000/svg" viewBox="0 0 800 800"><defs><style>.a{fill:#0be020;stroke:#04bc12;stroke-width:0.5px;}.a,.d{stroke-miterlimit:10;}.b{fill:#ff3939;}.c{fill:#e20a0a;opacity:0.57;}.d{fill:#fcf459;stroke:#eaea68;stroke-width:0.25px;}</style></defs><title>Frutilla</title><path class="a" d="M276.06,127.77l.21,11.09c.85,44.22,36.36,84,91.78,102.8l20.25,6.87h0c2.94-41.77-25.36-81.21-74.22-103.46Z"/><path class="a" d="M394.51,85.31l7,8.62c27.83,34.38,29.14,85.37,3.37,131.78l-9.41,17h0c-28.84-30.31-34.85-76.87-15.78-122.14Z"/><path class="a" d="M509.21,123.3l.21,11.09c.85,44.22-33.11,85.33-87.77,106.24l-20,7.64h0c-4.54-41.63,22.23-82.12,70.21-106.22Z"/><path class="b" d="M363.62,693.16,212,457.59c-64.34-99.93,5.91-231.7,124.75-234l120.76-2.31c119.87-2.3,195,128.73,132.43,231L443.13,692.24C425.07,721.77,382.35,722.26,363.62,693.16Z"/><path class="c" d="M363.62,693.16,212,457.59c-64.34-99.93,5.91-231.7,124.75-234h0a346.23,346.23,0,0,0,34.57,378.25l71.86,90.38C425.07,721.77,382.35,722.26,363.62,693.16Z"/><ellipse class="d" cx="287.71" cy="329.68" rx="20.73" ry="5.18" transform="translate(-149.34 308.37) rotate(-46.1)"/><ellipse class="d" cx="343.4" cy="328.61" rx="20.73" ry="5.18" transform="translate(-51 593.85) rotate(-77.66)"/><ellipse class="d" cx="399.1" cy="327.54" rx="5.18" ry="20.73" transform="translate(-6.2 7.71) rotate(-1.1)"/><ellipse class="d" cx="454.79" cy="326.47" rx="5.18" ry="20.73" transform="translate(-77.04 151.62) rotate(-17.47)"/><ellipse class="d" cx="510.49" cy="325.41" rx="5.18" ry="20.73" transform="translate(-77.96 467.58) rotate(-46.1)"/><ellipse class="d" cx="313.51" cy="391.38" rx="20.73" ry="5.18" transform="translate(-115.03 651.8) rotate(-82.59)"/><ellipse class="d" cx="374.39" cy="390.21" rx="20.73" ry="5.18" transform="translate(-60.84 711.15) rotate(-82.59)"/><ellipse class="d" cx="497.43" cy="387.85" rx="5.18" ry="20.73" transform="translate(-93.5 167.25) rotate(-17.47)"/><ellipse class="d" cx="269.37" cy="454.42" rx="20.73" ry="5.18" transform="translate(-232.12 620.45) rotate(-77.66)"/><ellipse class="d" cx="344.49" cy="452.98" rx="20.73" ry="5.18" transform="translate(-149.13 736.18) rotate(-82.59)"/><ellipse class="d" cx="401.48" cy="451.88" rx="5.18" ry="20.73" transform="translate(-8.59 7.78) rotate(-1.1)"/><ellipse class="d" cx="457.18" cy="450.82" rx="5.18" ry="20.73" transform="translate(-50.58 57.84) rotate(-6.86)"/><ellipse class="d" cx="533.6" cy="449.35" rx="5.18" ry="20.73" transform="matrix(0.95, -0.3, 0.3, 0.95, -110.3, 180.95)"/><ellipse class="d" cx="335.52" cy="525.71" rx="20.73" ry="5.18" transform="translate(-271.86 667.26) rotate(-70.57)"/><ellipse class="d" cx="397.89" cy="534.88" rx="5.18" ry="20.73" transform="translate(-10.18 7.72) rotate(-1.1)"/><ellipse class="d" cx="470.22" cy="523.13" rx="5.18" ry="20.73" transform="translate(-218.12 378.36) rotate(-36.17)"/><ellipse class="d" cx="401.87" cy="607.36" rx="5.18" ry="20.73" transform="translate(-11.57 7.81) rotate(-1.1)"/><ellipse class="d" cx="436.56" cy="389.02" rx="5.18" ry="20.73" transform="translate(-43.34 54.93) rotate(-6.86)"/></svg>