<svg xmlns="http://www.w3.org/2000/svg" viewBox="0 0 800 800"><defs><style>.a{fill:#ff7f00;}.b{fill:#ffab5f;}.c{fill:#ff4e00;}.d{fill:#46c638;}</style></defs><title>Naranja</title><circle class="a" cx="400" cy="431" r="242"/><path class="b" d="M553.68,555.68c11.09-13.64,19.44-29.89,26.23-46,15.16-36,21-75.43,15.44-114.18-4.19-29.32-15-57.25-29.9-82.73-2.93-5-10.71-.47-7.77,4.54,23.84,40.69,35.44,87.39,29,134.43a218.19,218.19,0,0,1-30,83.72c-2.22,3.63-4.54,7.2-7,10.67q-1.08,1.51-2.19,3c.25-.33.48-.59-.17.21-3.62,4.46,2.71,10.86,6.36,6.36Z"/><circle class="c" cx="271" cy="312" r="19"/><circle class="c" cx="237" cy="365" r="15"/><circle class="c" cx="280.5" cy="359.5" r="9.5"/><path class="d" d="M315,127h0a65,65,0,0,1,65,65v0a0,0,0,0,1,0,0h0a65,65,0,0,1-65-65v0A0,0,0,0,1,315,127Z"/><path class="d" d="M445,127h0a0,0,0,0,1,0,0v0a65,65,0,0,1-65,65h0a0,0,0,0,1,0,0v0A65,65,0,0,1,445,127Z" transform="translate(825 319) rotate(180)"/></svg>