<svg xmlns="http://www.w3.org/2000/svg" viewBox="0 0 800 800"><defs><style>.a{fill:#ffd400;stroke:#d1a900;stroke-miterlimit:10;stroke-width:3px;}.b{fill:#d1a900;}</style></defs><title>Platano</title><path class="a" d="M678.1,143c2.24,10.71,4.37,30.28-4.16,48.09a32.68,32.68,0,0,1-27.73,18.23c-14.13.83-35.47,5.63-43.27,26.16-12.09,31.79-71.05,95-178.56,145.51,0,0-202.06,92.55-372.16-24.05a5.46,5.46,0,0,0-7.08.81L29.87,374.31a5.47,5.47,0,0,0,1.42,8.53c9.12,4.94,25.42,17.44,34.51,46.32,13.09,41.59,106.79,85.74,106.79,85.74s190.24,89.29,376.19-13.43S707.5,245.35,696.19,213.9c-4.17-11.59-3.3-23.06,27.81-49.26a5.46,5.46,0,0,0-.64-8.81c-8.87-5.5-25.28-15.07-38.22-19.08A5.47,5.47,0,0,0,678.1,143Z"/><path class="b" d="M293.48,511.15c11.18.94,22.49,1,33.71.82a569.35,569.35,0,0,0,83.35-7.17c35.89-5.76,71.3-15.14,104.82-29.29,36.83-15.54,71.3-37,99.7-65.32,32.06-31.93,55-71.76,68.12-115,1.87-6.17,3.52-12.39,5-18.65.9-3.75-4.89-5.35-5.79-1.6-10.71,44.78-31.15,86.83-62.15,121.09-26.93,29.76-60.48,52.69-96.84,69.41-33,15.19-68.33,25.32-104.06,31.79A555.77,555.77,0,0,1,334,505.85c-9.08.22-18.16.23-27.24,0-4.18-.12-8.6-.83-12.77-.61a4.24,4.24,0,0,1-.55,0c-3.85-.32-3.83,5.68,0,6Z"/><ellipse class="b" cx="42.31" cy="370.43" rx="16.94" ry="7.81" transform="translate(-255.7 146.38) rotate(-46.55)"/><ellipse class="b" cx="702.73" cy="149.99" rx="5.52" ry="26.08" transform="translate(262.78 718.11) rotate(-64.29)"/><path class="a" d="M681.75,143.64c3.61,10.33,8.26,29.45,2.11,48.22a32.68,32.68,0,0,1-25.13,21.67c-13.91,2.65-34.44,10.18-39.52,31.55C611.35,278.18,561.07,348.45,461,412.51c0,0-188.36,118-372.14,24.4A5.46,5.46,0,0,0,82,438.64L69,457a5.47,5.47,0,0,0,2.51,8.27c9.68,3.72,27.47,14,40.22,41.45,18.37,39.54,117,71.18,117,71.18S428.93,641.76,600,515.8,724.17,241.26,708.87,211.55c-5.64-11-6.26-22.43,21.19-52.45a5.46,5.46,0,0,0-1.78-8.65c-9.51-4.3-27-11.66-40.37-14A5.47,5.47,0,0,0,681.75,143.64Z"/><path class="b" d="M347.71,558.53c11.37-.53,22.73-2,34-3.62a563.82,563.82,0,0,0,81.38-17.78C498,526.74,532,512.84,563.47,494.44c34.57-20.22,66-46.1,90.5-77.89,27.8-36.05,45.48-78.81,52.69-123.68,1-6.17,1.79-12.36,2.45-18.57.4-3.84-5.6-3.81-6,0-4.81,45.72-19.79,90-46,127.87-22.8,33-53.22,60.1-87.1,81.32-30.78,19.27-64.31,33.89-98.87,44.9A561.21,561.21,0,0,1,387.87,548c-13.17,2.07-26.45,2.76-39.61,4.54-.18,0-.36,0-.54,0-3.84.18-3.87,6.18,0,6Z"/><ellipse class="b" cx="80.8" cy="451.54" rx="16.94" ry="7.81" transform="matrix(0.59, -0.81, 0.81, 0.59, -331.98, 251.48)"/><ellipse class="b" cx="707.07" cy="147.33" rx="5.52" ry="26.08" transform="translate(345.66 772.65) rotate(-71.74)"/><path class="a" d="M692.13,145.55c5.63,9.39,14.05,27.17,11.83,46.79a32.68,32.68,0,0,1-20.22,26.32c-13.08,5.41-31.66,16.94-32.31,38.9-1,34-36,113-121,196,0,0-160.56,153.67-359.48,99.27a5.46,5.46,0,0,0-6.43,3.09l-9,20.6a5.47,5.47,0,0,0,4.14,7.59c10.23,1.68,29.73,8.15,47.79,32.45,26,35,129,46,129,46s209,22,351-136,66-294,45-320c-7.74-9.59-10.67-20.7,10.12-55.65a5.46,5.46,0,0,0-3.5-8.11c-10.18-2.29-28.82-5.95-42.36-5.5A5.47,5.47,0,0,0,692.13,145.55Z"/><path class="b" d="M449.23,619.45c10.87-2.78,21.56-6.47,32.1-10.27a569.3,569.3,0,0,0,76.37-34c32-17.18,62.35-37.62,89.38-61.9,29.72-26.7,55.34-58.36,72.9-94.37,19.92-40.86,28.69-86.17,26.8-131.52-.26-6.28-.73-12.55-1.35-18.81-.38-3.81-6.38-3.85-6,0,4.56,45.79-.91,92.21-18.91,134.74-15.63,36.94-39.83,69.65-68.67,97.34C625.62,525.85,595.68,547,564,564.84A555.92,555.92,0,0,1,486.23,601c-8.51,3.19-17.09,6.18-25.76,8.9-4,1.27-8.33,2.13-12.29,3.61a5.32,5.32,0,0,1-.54.14c-3.74,1-2.15,6.75,1.6,5.79Z"/><ellipse class="b" cx="166" cy="568.79" rx="16.94" ry="7.81" transform="translate(-420.68 485.84) rotate(-65.68)"/><ellipse class="b" cx="717.67" cy="144.03" rx="5.52" ry="26.08" transform="translate(492.46 840.51) rotate(-83.43)"/></svg>