<svg xmlns="http://www.w3.org/2000/svg" viewBox="0 0 800 800"><defs><style>.a{fill:#7f1370;}.b{fill:#af1291;}.c{fill:#46c638;}</style></defs><title>Uva</title><polygon class="a" points="202 318 373 670 433 670 610 321 527 205 258 211 202 318"/><circle class="b" cx="400" cy="650" r="58"/><circle class="b" cx="342" cy="550" r="58"/><circle class="b" cx="458" cy="550" r="58"/><circle class="b" cx="284" cy="449" r="58"/><circle class="b" cx="400" cy="449" r="58"/><circle class="b" cx="516" cy="449" r="58"/><circle class="b" cx="226" cy="347" r="58"/><circle class="b" cx="342" cy="347" r="58"/><circle class="b" cx="458" cy="347" r="58"/><circle class="b" cx="574" cy="347" r="58"/><circle class="b" cx="284" cy="246" r="58"/><circle class="b" cx="400" cy="246" r="58"/><circle class="b" cx="516" cy="246" r="58"/><path class="c" d="M293.41,92h0A106.59,106.59,0,0,1,400,198.59v0a0,0,0,0,1,0,0h0A106.59,106.59,0,0,1,293.41,92v0A0,0,0,0,1,293.41,92Z"/><path class="c" d="M506.59,92h0a0,0,0,0,1,0,0v0A106.59,106.59,0,0,1,400,198.59h0a0,0,0,0,1,0,0v0A106.59,106.59,0,0,1,506.59,92Z" transform="translate(906.59 290.59) rotate(180)"/></svg>