<svg xmlns="http://www.w3.org/2000/svg" viewBox="0 0 120 120"><defs><style>.a{fill:#e6e6e6;}.b{fill:#999;}</style></defs><title>incognita</title><rect class="a" width="120" height="120" rx="20" ry="20"/><path class="b" d="M55.35,71V69.16a15.19,15.19,0,0,1,1.22-6.53,17.49,17.49,0,0,1,4.55-5.41q4.61-3.9,5.82-5.87a8.93,8.93,0,0,0,1.2-4.75,6.62,6.62,0,0,0-2.22-5.34q-2.22-1.88-6.39-1.88A21.74,21.74,0,0,0,54.3,40a28.36,28.36,0,0,0-5.83,2.29l-2-4.58a28.5,28.5,0,0,1,13.4-3.36q6.48,0,10.07,3.19t3.6,9a13.13,13.13,0,0,1-.66,4.36,12.81,12.81,0,0,1-2,3.56,46.83,46.83,0,0,1-5.56,5.41,20.92,20.92,0,0,0-4.53,4.85,10.38,10.38,0,0,0-1.1,5.16V71ZM53.69,81.06q0-4.61,4.07-4.61a3.87,3.87,0,0,1,3,1.19,5,5,0,0,1,1.07,3.43,4.86,4.86,0,0,1-1.09,3.38,3.86,3.86,0,0,1-3,1.2,4.12,4.12,0,0,1-2.92-1.07A4.6,4.6,0,0,1,53.69,81.06Z"/></svg>